<svg width="278" height="75" viewBox="0 0 278 75" fill="none" xmlns="http://www.w3.org/2000/svg">
<g clip-path="url(#clip0_15_67)">
<path d="M55.5327 57.4785C57.5524 56.8801 59.2889 56.0378 60.2413 53.7741C61.4133 50.9835 62.3555 48.2447 62.3329 45.0976C62.2734 36.8898 62.0127 28.6928 61.8259 20.4936C61.7233 16.0355 61.4647 11.5838 61.2758 7.12782C61.277 6.4043 61.0979 5.6931 60.7565 5.06507C60.6021 4.8495 60.5223 4.58495 60.5301 4.31515C60.5379 4.04534 60.633 3.78643 60.7996 3.58118C61.3374 2.79064 61.8259 1.96554 62.3432 1.15988C62.7085 0.587489 63.0287 0.596128 63.2443 1.27219C64.261 4.47756 65.2791 7.68509 66.2985 10.8948C66.3601 11.0935 66.4771 11.3419 66.2698 11.4866C66.0624 11.6313 65.8941 11.4218 65.7381 11.2879C65.7135 11.2641 65.6909 11.2361 65.6643 11.2145C65.2394 10.8775 64.8432 10.0135 64.4471 10.2511C63.9113 10.5708 64.2931 11.4261 64.3013 12.0504C64.3178 13.1649 64.3588 14.2794 64.3752 15.3918C64.4697 21.7248 64.4943 28.0578 64.6749 34.3864C64.7734 37.8769 64.7508 41.3674 64.8227 44.8557C64.8742 47.1963 64.6585 49.535 64.1802 51.8215C64.1104 52.1542 63.9093 52.4976 64.1104 52.8518C64.3937 52.949 64.5784 52.7546 64.7714 52.6229C67.8769 50.5234 70.9538 48.3764 73.8294 45.927C74.0187 45.7731 74.1933 45.6002 74.3508 45.4108C74.7079 44.9594 74.6464 44.4604 74.3857 44.0025C74.1065 43.51 73.7083 43.8189 73.3799 43.9312C71.5326 44.5663 69.7797 44.5231 68.0432 43.4625C66.1651 42.3113 65.6601 40.458 65.656 38.4147C65.656 36.879 65.6766 35.3174 66.0358 33.8032C66.358 32.4381 66.9533 31.2869 68.3634 30.9305C69.7735 30.5741 70.9189 31.0428 71.8528 32.1768C73.0187 33.5872 73.7186 35.272 74.3487 36.9805C74.6607 37.8272 75.0138 37.9071 75.6952 37.4449C77.3961 36.305 78.9785 34.9802 80.4162 33.4922C80.5804 33.3216 80.7282 33.0256 80.9889 33.1077C81.3337 33.2179 81.2557 33.5959 81.2187 33.8529C80.995 35.4232 81.6539 36.5032 82.8834 37.2591C83.7331 37.7754 84.5255 37.7171 85.3301 36.9978C86.4261 36.0107 86.9064 34.6737 87.4545 33.3583C87.5469 33.1423 87.5407 32.8615 87.8219 32.6973C88.1359 32.9781 88.0107 33.3561 88.0272 33.6844C88.0445 34.0981 88.1445 34.5033 88.3205 34.8736C88.4966 35.244 88.7448 35.5711 89.049 35.8338C89.3532 36.0964 89.7066 36.2887 90.0861 36.3981C90.4657 36.5075 90.8628 36.5315 91.2518 36.4686C91.6336 36.4038 91.7998 36.3196 91.7875 35.7947C91.7546 34.3994 91.845 32.9997 91.9209 31.6044C91.9353 31.3517 91.9065 30.9564 92.2473 30.8938C92.588 30.8311 92.6578 31.2156 92.7666 31.4662C93.06 32.1536 93.2617 32.8805 93.3659 33.6261C93.6081 35.4966 93.3167 37.3585 93.2674 39.2225C93.2202 40.9181 92.6414 41.5661 91.3298 41.8469C89.893 42.1536 88.4561 41.497 87.8178 40.242C87.6782 39.9634 87.5715 39.6675 87.3806 39.2204C87.0214 39.9029 86.7648 40.471 86.4323 41.0023C85.7529 42.1234 84.977 43.2271 83.534 43.0089C82.0582 42.7929 81.1202 41.713 80.5804 40.309C80.1185 39.1059 80.1699 39.1016 79.2277 40.0131C78.3738 40.8425 77.5241 41.687 76.4937 42.2746C75.8656 42.6353 75.685 43.1385 75.6993 43.8621C75.7219 45.1926 75.6254 46.521 75.5618 47.8494C75.4818 49.491 74.7161 50.5774 73.5646 51.5407C71.0428 53.6395 68.3994 55.5713 65.6499 57.3251C63.117 58.9515 60.7729 60.5974 58.9995 63.3254C56.0807 67.8225 51.7252 70.5915 46.8749 72.3389C39.3912 75.0302 31.7083 75.6523 23.9085 74.3347C21.193 73.8746 18.6149 72.92 16.3858 71.0948C14.1567 69.2696 12.7363 66.9261 12.256 63.9972C11.9009 61.8372 11.6115 59.6622 11.3323 57.4893C10.9218 54.3055 11.5376 51.2621 12.5495 48.2814C12.648 47.9941 12.6727 47.5362 13.0339 47.547C13.3952 47.5578 13.387 48.0265 13.4321 48.3203C13.6538 49.7393 13.8427 51.1649 14.0479 52.5883C14.1074 53.0009 13.9535 53.3638 13.818 53.7331C13.3111 55.2299 12.9043 56.7621 12.6008 58.3187C12.2355 60.0056 12.6563 61.4031 13.6271 62.7444C16.2298 66.3105 19.9101 67.7814 23.9126 68.3711C31.4744 69.4878 38.917 68.8268 46.1606 66.1766C47.0206 65.8612 47.8499 65.4465 48.7756 65.0405C48.4123 64.5631 48.0141 64.6884 47.6754 64.6517C45.0707 64.3579 43.3465 62.2001 43.5702 59.4678C43.6688 58.2409 43.4614 56.9795 43.8412 55.7743C44.1224 55.8218 44.1675 56.0075 44.2373 56.1652C45.3272 58.6578 46.9734 59.5995 49.574 59.2777C51.6615 59.0185 53.6669 58.4893 55.543 57.4741L55.5327 57.4785ZM71.001 38.9029C71.2493 38.7042 72.0806 39.2528 71.9144 38.3586C71.6332 36.8466 69.1947 35.8055 67.8503 36.5075C67.2345 36.8293 67.3084 37.1555 67.7538 37.5464C68.6713 38.337 69.6853 38.9007 71.001 38.8964V38.9029Z" fill="#FBD46E"/>
<path d="M260.12 30.1292C260.12 27.2478 260.169 24.591 260.108 21.9365C260.034 18.6965 259.843 15.4696 259.755 12.234C259.724 11.0611 259.592 9.93792 259.03 8.90979C258.841 8.56419 258.792 8.24884 259.009 7.90541C259.625 6.91615 260.253 5.92257 260.879 4.93548C261.156 4.50349 261.436 4.35877 261.639 4.99163C262.747 8.43172 263.851 11.8747 264.95 15.3205C264.993 15.4162 265.001 15.5252 264.972 15.6267C264.944 15.7283 264.881 15.8153 264.796 15.8713C264.262 15.6078 263.919 15.0462 263.451 14.6553C263.275 14.5084 263.125 14.2233 262.852 14.3637C262.647 14.476 262.694 14.7481 262.71 14.9512C262.998 18.5799 262.813 22.2172 262.948 25.8503C263.035 28.1506 263.069 30.4531 263.076 32.7621C263.059 33.5861 263.329 34.388 263.835 35.0171C267.704 40.0786 269.505 45.8594 269.24 52.3594C269.225 52.7438 269.274 53.1564 268.829 53.6273C267.77 49.1238 265.631 45.2639 263.529 41.3825L263.277 41.443C263.277 42.1795 263.277 42.9182 263.277 43.6548C263.262 47.7155 263.556 51.7935 262.673 55.8067C262.309 57.6032 261.746 59.3487 260.996 61.0078C260.855 61.3102 260.764 61.6752 260.27 61.9128C260.315 61.0251 260.335 60.2583 260.393 59.4959C260.951 52.0937 260.598 44.6829 260.549 37.2743C260.567 36.876 260.461 36.4824 260.247 36.1533C258.572 33.7363 256.77 31.4338 254.681 29.3926C254.596 29.3341 254.504 29.289 254.408 29.2587C254.122 29.6237 254.252 30.032 254.256 30.4056C254.323 36.4535 254.364 42.5014 254.488 48.5492C254.586 53.2277 253.461 57.6016 251.671 61.8156C250.142 65.4357 246.924 66.6539 243.5 65.0361C241.425 64.0577 239.998 62.5608 239.805 60.0358C239.766 59.5067 239.643 58.9861 239.537 58.323C238.566 59.3835 237.708 60.3944 236.649 61.172C235.794 61.8338 234.842 62.3445 233.83 62.6839C232.353 63.144 230.938 63.0792 229.877 61.7638C228.875 60.5218 229.329 59.1719 229.904 57.9104C232.073 53.1391 234.793 48.7566 238.319 44.9702C238.826 44.4436 239.164 43.7641 239.286 43.0262C239.547 41.7805 239.925 40.5651 240.413 39.3975C240.877 40.2291 240.573 41.1017 240.774 42.0305C242.022 41.0758 242.622 39.6243 243.498 38.3586C243.853 38.851 243.556 39.1469 243.416 39.4385C242.854 40.5898 242.361 41.7994 241.657 42.8491C240.807 44.1148 240.62 45.441 240.723 46.9249C240.836 48.5751 240.838 50.2318 240.951 51.8928C240.996 52.5408 240.844 53.2795 241.468 53.7741C241.54 53.8303 241.528 54.0398 241.515 54.1737C241.136 57.9061 242.689 60.2216 246.162 61.0251C247.198 61.3033 248.287 61.2583 249.299 60.8955C251.146 60.1784 251.663 59.444 251.7 57.3791C251.77 53.5301 251.905 49.6789 251.871 45.832C251.805 39.3932 251.614 32.9544 251.487 26.5177C251.469 25.8689 251.253 25.2433 250.871 24.7336C247.382 19.7808 244.175 14.6445 241.659 9.05882C241.563 8.78783 241.414 8.54122 241.222 8.33524C239.822 7.14079 239.756 5.65042 240.239 3.98078C240.415 3.36735 240.444 2.70641 240.559 2.07138C240.686 1.36724 241.002 1.3262 241.443 1.81867C242.474 2.97064 243.504 4.12261 244.533 5.27459C245.586 6.45392 246.641 7.63326 247.685 8.81907C247.862 9.01778 248.182 9.18842 248.028 9.52753C247.874 9.86664 247.554 9.76513 247.289 9.75433C246.879 9.73921 246.483 9.68737 245.869 9.63121C247.449 12.3851 249.19 14.7957 250.881 17.2774C251.23 16.9621 251.099 16.6165 251.086 16.3227C251.032 14.4177 250.963 12.5126 250.881 10.6075C250.874 9.84355 250.667 9.09639 250.284 8.44756C249.949 7.91621 249.988 7.4583 250.319 6.96151C250.885 6.09753 251.433 5.23355 252 4.36957C252.127 4.17733 252.205 3.87062 252.519 3.93758C252.749 3.99158 252.77 4.25077 252.835 4.45381C253.918 7.79165 254.997 11.1309 256.072 14.4717C256.144 14.6877 256.314 14.9749 256.013 15.1304C255.795 15.2449 255.641 15.0138 255.497 14.8713C255.052 14.4393 254.613 13.9922 254.18 13.5602C253.794 13.7762 253.927 14.1217 253.931 14.368C253.958 16.5971 254.013 18.8283 254.063 21.0638C254.063 21.3878 254.063 21.7291 254.268 21.9991C256.187 24.6774 258.125 27.3623 260.12 30.1292ZM239.052 46.9595C236.776 49.3959 234.495 51.7999 232.533 54.5042C232.123 55.0593 232.279 55.6792 232.65 56.2084C233.159 56.932 233.818 57.3985 234.703 57.4525C236.427 57.5584 237.796 56.7462 239.064 55.6468C239.185 55.5449 239.278 55.4116 239.335 55.26C239.391 55.1084 239.409 54.9439 239.387 54.7828C239.126 52.2082 239.28 49.6206 239.052 46.9595Z" fill="#FBD46E"/>
<path d="M129.2 51.7503C125.75 51.4177 122.5 51.0872 119.247 50.8021C117.857 50.679 117.644 50.4154 118.426 49.2123C121.195 45.0091 124.676 41.6072 129.038 39.2938C129.797 38.8899 129.824 38.5616 129.354 37.9482C129.126 37.6349 128.92 37.3042 128.738 36.9589C127.917 35.4794 128.02 34.151 129.116 32.8961C130.017 31.8615 130.986 30.8938 131.893 29.8721C132.751 28.9002 133.777 28.6863 134.882 29.1874C137.447 30.3516 139.422 32.3496 141.31 34.4469C141.649 34.8227 141.485 35.177 141.197 35.488C139.615 37.1944 138.27 39.2528 135.694 39.4494C135.054 39.4969 134.719 39.9332 134.797 40.6373C134.9 41.5532 134.494 42.1947 133.884 42.7973C133.215 43.4604 132.63 44.2185 131.994 44.9227C131.813 45.1192 131.616 45.3979 131.3 45.2229C131.051 45.0847 131.095 44.7909 131.08 44.5447C131.041 43.7541 131.035 42.9614 130.973 42.1687C130.918 41.4776 130.577 41.2335 129.918 41.5013C127.262 42.5813 124.699 43.8427 122.348 45.5491C122.065 45.7543 121.718 45.9811 121.827 46.3914C121.936 46.8018 122.346 46.6614 122.634 46.6917C127.423 47.1885 132.218 47.6773 137.018 48.1583C139.093 48.3743 141.169 48.5903 143.244 48.7933C144.052 48.8732 144.112 49.2253 143.601 49.8063C142.811 50.7006 142.016 51.5948 141.218 52.4804C140.863 52.8735 140.385 52.9296 139.906 53.0074C135.649 53.7094 131.39 54.3984 127.217 55.5561C126.326 55.8045 125.46 56.1566 124.567 56.3963C123.746 56.6123 123.722 57.0962 124.06 57.7506C124.476 58.6203 125.044 59.3994 125.735 60.0467C126.979 61.1774 128.397 62.0759 129.929 62.7034C130.544 62.9475 130.663 63.252 130.179 63.7834C129.374 64.6668 128.59 65.5697 127.817 66.4812C127.406 66.9736 126.905 67.0449 126.328 66.9348C120.858 65.9023 117.131 62.6148 115.013 57.2495C114.764 56.6188 114.588 55.9536 114.347 55.3228C114.237 55.0377 114.302 54.5561 113.955 54.5107C113.561 54.4589 113.463 54.9427 113.288 55.2321C111.944 57.4468 110.387 59.511 108.643 61.3923C106.398 63.7683 103.978 65.8677 100.706 66.4358C98.2039 66.8678 95.9563 66.1464 93.9715 64.535C93.3869 64.0852 92.9224 63.4842 92.6229 62.7903C92.3234 62.0964 92.199 61.333 92.2617 60.5737C92.354 59.0315 92.4998 57.4914 92.5983 55.9492C92.7851 53.0851 94.2075 50.8841 95.9933 48.8776C96.1657 48.6853 96.3176 48.3246 96.646 48.4996C96.8882 48.6292 96.8143 48.951 96.7999 49.1907C96.7301 50.4478 96.646 51.7028 96.5598 52.9577C96.5249 53.4545 96.2539 53.8217 95.944 54.1716C95.2528 54.9681 94.6078 55.8076 94.0125 56.6858C93.3824 57.6146 93.522 58.3533 94.3143 59.0207C96.3668 60.7486 98.6719 61.5241 101.303 60.9646C103.477 60.4981 105.308 59.3101 106.962 57.8262C109.259 55.7181 111.27 53.2886 112.939 50.6055C113.169 50.247 113.35 49.8798 113.26 49.3981C112.439 44.9702 111.486 40.5963 109.343 36.6198C108.769 35.5398 108.175 34.4944 107.305 33.6607C106.802 33.179 106.858 32.7838 107.305 32.3042C108.065 31.4748 108.801 30.6238 109.528 29.7641C110.07 29.1162 110.474 29.1961 111.016 29.8397C113.479 32.7881 114.69 36.3758 115.715 40.0498C116.575 43.1299 116.987 46.3137 117.529 49.4586C117.976 52.014 118.904 54.4498 120.257 56.6231C120.532 57.0724 120.844 57.688 121.384 56.9126C123.213 54.2839 125.756 52.8519 128.668 52.016C128.851 51.9389 129.028 51.8501 129.2 51.7503Z" fill="#FBD46E"/>
<path d="M179.63 52.1239C178.836 54.3919 178.086 56.5108 177.352 58.634C176.891 60.0289 176.245 61.348 175.432 62.5522C173.815 64.8979 171.656 66.0621 168.907 65.8418C165.693 65.5826 163.254 64.0382 161.929 60.8285C160.73 57.9126 160.841 54.8455 161.107 51.7935C161.452 47.9747 162.448 44.3049 163.614 40.6848C163.702 40.4105 164.024 40.0563 163.669 39.8208C163.431 39.6567 163.168 39.9656 162.949 40.1232C161.721 41.0384 160.616 42.1238 159.665 43.3502C158.981 44.1991 158.763 45.1754 158.696 46.2316C158.388 51.0331 156.939 55.5194 155.352 59.984C154.736 61.7379 154.147 63.5069 153.299 65.1679C152.824 66.1659 152.2 67.078 151.452 67.87C150.015 69.315 148.069 69.4943 146.491 68.2523C143.032 65.5286 141.721 61.8415 142.443 57.4223C143.203 52.7784 144.906 48.4412 146.713 44.1645C148.62 39.6588 151.376 35.7191 154.381 31.9629C154.537 31.7729 154.707 31.5966 154.89 31.4359C154.958 31.3754 155.075 31.3798 155.188 31.3474C155.227 31.4662 155.311 31.5828 155.284 31.6562C154.435 34.1747 154.006 36.8639 152.249 39.0001C149.761 42.024 147.474 45.2207 145.76 48.8106C144.145 52.1952 144.547 55.5064 146.411 58.6427C147.158 59.9041 148.098 60.9948 149.379 61.7119C150.711 62.4571 151.973 62.3383 153.098 61.3232C154.285 60.254 155.192 58.9818 155.496 57.2905C155.834 55.4157 155.986 53.5128 156.282 51.6336C157.103 46.4497 158.69 41.5229 161.344 37.0431C162.405 35.2504 163.934 33.8961 165.677 32.8334C165.935 32.6757 166.227 32.3582 166.51 32.5677C166.863 32.8269 166.617 33.246 166.51 33.5527C165.42 36.508 164.601 39.5659 164.063 42.6849C163.513 46.0307 163.158 49.3808 163.993 52.7503C165.126 57.31 169.349 59.9278 173.577 58.7075C176.348 57.9061 177.969 55.636 178.431 52.1088C178.975 47.9466 178.842 43.793 178.548 39.6221C178.403 37.5443 178.259 35.4253 178.487 33.3583C178.741 31.0536 179.819 28.9563 180.648 26.6106C181.178 27.224 181.135 27.7662 181.176 28.2759C181.44 31.4359 181.286 34.611 181.461 37.7667C181.752 43.0889 182.327 48.3807 184.224 53.4005C184.528 54.1636 184.891 54.899 185.309 55.5993C186.451 57.5972 188.048 58.4072 190.25 57.8867C191.826 57.513 193.224 56.8456 194.326 55.5669C194.791 55.0389 195.071 54.3602 195.121 53.6424C195.7 47.5492 194.872 41.5834 193.705 35.6457C193.671 35.3596 193.607 35.0784 193.514 34.8076C191.931 31.2458 193.271 28.0232 194.54 24.7919C194.628 24.5759 194.667 24.2627 194.95 24.226C195.234 24.1893 195.332 24.4809 195.445 24.6925C196.57 26.7942 197.685 28.9001 198.82 30.9931C199.076 31.4683 198.978 31.9154 198.793 32.3366C197.758 34.6904 197.392 37.3095 197.742 39.877C198.594 46.9465 196.658 53.5106 193.926 59.8306C192.67 62.7401 190.468 64.5825 187.274 64.8892C185.381 65.0728 184.037 64.2521 183.004 62.6904C181.873 60.984 181.176 59.0746 180.706 57.0745C180.344 55.4805 180.012 53.8756 179.63 52.1239Z" fill="#FBD46E"/>
<path d="M37.0696 48.1885C36.109 45.6484 35.5015 43.0046 34.8241 40.2853C34.2391 41.9808 33.6665 43.6829 33.065 45.3741C32.4636 47.0653 31.7966 48.7091 30.6923 50.126C27.441 54.3141 20.6715 53.3659 18.541 48.4153C17.3361 45.6203 17.3525 42.6763 17.6317 39.7215C17.9498 36.3757 18.7339 33.1358 19.7725 29.9607C19.9244 29.5006 20.1666 29.0449 19.9942 28.2997C17.9847 30.0277 15.6838 31.261 15.4416 34.3648C15.0126 40.1168 12.999 45.4087 11.0265 50.7049C10.5959 51.845 10.0178 52.9171 9.30844 53.8908C7.66637 56.1587 5.3921 56.392 3.35594 54.5064C0.53569 51.8928 -0.529602 48.5471 0.246275 44.765C1.64203 37.9957 3.9984 31.6066 7.84084 25.9194C8.90818 24.3362 10.0658 22.8221 11.1989 21.2885C11.4595 20.9364 11.7141 20.5368 12.1944 20.4677C12.3996 20.8176 12.1779 21.0639 12.1143 21.3317C11.2933 24.7077 9.71074 27.6128 7.4919 30.2026C5.79441 32.1833 4.51565 34.4944 3.30257 36.838C1.26436 40.7928 2.90643 46.6247 6.64213 48.8365C7.20544 49.1935 7.86433 49.3467 8.51815 49.2726C9.17196 49.1985 9.78474 48.9012 10.2629 48.4261C11.4226 47.3051 12.2662 46.0178 12.5023 44.3049C12.7075 42.739 12.8861 41.1665 13.1037 39.6027C13.7338 35.0366 15.265 30.7599 17.3238 26.7143C18.3501 24.6883 19.949 23.1352 21.8559 21.9754C22.1125 21.8198 22.4039 21.5153 22.6769 21.7594C22.9499 22.0034 22.7693 22.3836 22.6769 22.6687C21.7669 25.1549 21.0589 27.7179 20.5607 30.33C19.9162 33.8832 19.4256 37.4579 20.5053 41.0045C21.3715 43.86 23.225 45.5836 26.0288 46.1711C28.8326 46.7586 31.0474 45.7651 32.8023 43.4409C33.5146 42.497 33.5351 41.3717 33.7239 40.2874C34.4649 36.028 34.2289 31.7383 33.8368 27.4832C33.4995 23.8931 34.0947 20.2739 35.5589 17.0118C35.6636 16.7742 35.6965 16.3638 36.0557 16.4502C36.3779 16.5301 36.3122 16.9297 36.3328 17.1954C36.5914 20.4591 36.5934 23.7336 36.7207 27.0037C36.8972 31.5763 37.4802 36.1079 38.9785 40.4429C39.3424 41.5295 39.8348 42.5636 40.4441 43.5209C41.6161 45.3179 43.2089 45.778 45.1096 45.2488C45.8723 45.0429 46.6039 44.7259 47.2833 44.3071C48.4902 43.5468 49.3359 42.5662 49.4447 40.8987C49.7423 36.5183 49.3297 32.2049 48.6544 27.9001C48.3055 25.5585 47.8348 23.2388 47.2443 20.9515C47.0432 20.2606 47.0699 19.5185 47.3202 18.8456C47.8519 17.4027 48.3465 15.9426 48.8494 14.4911C48.9295 14.2751 48.9418 13.949 49.2251 13.895C49.5391 13.8345 49.5843 14.1585 49.6971 14.3658C50.6885 16.1716 51.6717 17.9838 52.6734 19.7852C53.0039 20.3813 53.1106 20.9343 52.813 21.6125C51.9304 23.632 51.528 25.6883 51.8175 27.9865C52.6713 34.7839 50.9369 41.1168 48.2726 47.2101C47.3182 49.3981 45.7336 50.9403 43.4737 51.6056C40.752 52.4047 39.0299 51.666 37.6054 49.0979C37.435 48.7868 37.2462 48.4888 37.0635 48.1864L37.0696 48.1885Z" fill="#FBD46E"/>
<path d="M200.404 21.2366C200.26 17.8657 200.115 14.4933 199.967 11.1194C199.971 10.9745 199.938 10.8312 199.87 10.7047C198.797 9.15388 199.505 7.89679 200.462 6.68506C200.847 6.19475 201.032 5.21197 201.58 5.26813C202.264 5.33724 202.196 6.3481 202.401 6.95721C203.333 9.78026 204.222 12.6163 205.127 15.4458C205.221 15.7439 205.386 16.0333 205.195 16.4675C204.6 16.1802 204.203 15.6964 203.758 15.2817C203.614 15.1477 203.475 14.8864 203.253 15.0505C203.15 15.1283 203.122 15.3702 203.124 15.5365C203.157 18.2343 203.267 20.9364 203.212 23.6299C203.177 25.3449 203.852 26.6214 204.827 27.8958C207.227 31.0342 209.651 34.1596 211.868 37.4428C214.877 41.8944 216.1 46.9768 216.03 52.4134C216.049 52.9596 215.945 53.5028 215.727 53.9988C215.605 53.8843 215.495 53.8303 215.47 53.7504C213.305 46.2986 209.405 39.8705 204.877 33.8097L204.745 33.6434C204.384 33.1985 204.113 32.2913 203.575 32.5116C203.099 32.706 203.37 33.6261 203.403 34.2093C203.719 39.2398 203.522 44.279 203.657 49.3139C203.77 53.4739 203.105 57.5606 201.43 61.4096C201.266 61.7876 201.19 62.2433 200.771 62.4442C200.492 62.3297 200.554 62.09 200.566 61.8869C201.182 55.8974 201.04 49.8841 200.977 43.8794C200.934 39.2053 200.737 34.5311 200.634 29.857C200.617 29.0989 200.246 28.5826 199.813 28.0578C195.355 22.5066 191.578 16.3877 188.571 9.84506C188.219 9.062 187.737 8.3511 187.148 7.74559C186.955 7.5684 186.811 7.33899 186.732 7.08208C186.653 6.82517 186.642 6.55049 186.701 6.28762C186.906 5.04997 187.101 3.80584 187.3 2.56387C187.407 1.89644 187.67 1.72797 188.152 2.27011C190.28 4.65758 192.408 7.04577 194.536 9.43467C194.671 9.58803 194.846 9.75434 194.741 9.99626C194.636 10.2382 194.4 10.1885 194.203 10.2123C192.639 10.3635 192.623 10.3743 193.575 11.7761C195.543 14.6704 197.522 17.5575 199.511 20.4375C199.716 20.7485 199.975 21.0336 200.207 21.3295L200.404 21.2366Z" fill="#FBD46E"/>
<path d="M224.852 16.6316C223.871 16.1996 223.676 15.2449 222.976 14.8518C222.771 15.2557 222.87 15.6553 222.87 16.0355C222.87 26.036 222.843 36.0388 222.896 46.0393C222.939 53.718 219.538 59.3619 213.688 63.5522C209.345 66.6669 204.483 68.0298 199.232 67.8549C198.809 67.8419 198.333 67.965 197.974 67.5395C198.204 67.0254 198.707 67.0449 199.101 66.9045C205.811 64.5415 211.663 60.7724 216.418 55.2148C217.149 54.3616 217.802 53.4329 218.471 52.5149C219.182 51.533 219.558 50.3278 219.538 49.0935C219.514 42.0067 219.538 34.9199 219.471 27.8331C219.423 22.7637 219.265 17.6943 219.15 12.6271C219.12 11.1626 218.906 9.75432 218.063 8.53827C217.802 8.1646 217.765 7.85788 218.063 7.48637C218.974 6.36752 219.834 5.19898 220.776 4.11037C221.503 3.27231 221.597 4.17733 221.714 4.6158C222.424 7.20774 223.104 9.79968 223.785 12.4089C224.128 13.7481 224.458 15.0851 224.852 16.6316Z" fill="#FBD46E"/>
<path d="M251.169 67.1076C251.374 66.6021 251.745 66.5913 252.051 66.4898C256.992 64.862 261.592 62.2574 265.605 58.8155C267.883 56.8541 269.916 54.5962 271.653 52.0959C272.434 50.9478 272.848 49.5679 272.834 48.1562C272.99 39.5163 272.704 30.8765 272.594 22.2475C272.553 19.0832 272.491 15.9167 272.466 12.7437C272.454 11.0503 272.179 9.44765 271.307 8.00481C271.069 7.61385 271.054 7.29418 271.337 6.92483C272.21 5.81677 273.066 4.69576 273.936 3.58554C274.328 3.08227 274.683 3.06931 274.864 3.75618C275.915 7.70601 276.957 11.658 277.99 15.6122C278.012 15.7029 277.959 15.813 277.926 15.9923C277.132 15.7331 276.941 14.813 276.321 14.4285C275.972 14.6942 276.091 15.0376 276.091 15.3422C276.127 25.2376 276.164 35.1331 276.202 45.0285C276.237 51.7093 273.881 57.161 268.942 61.4312C264.361 65.3947 259.108 67.2415 253.248 67.397C252.544 67.4382 251.838 67.34 251.169 67.1076Z" fill="#FBD46E"/>
<path d="M76.1509 53.8498C76.5615 54.42 76.4917 55.0118 76.4917 55.5777C76.4917 58.8889 76.543 62.1937 77.1321 65.4638C77.5631 67.8398 79.0615 69.3712 80.8637 69.0925C82.4524 68.8485 83.4212 67.6756 84.2238 66.33C85.6606 63.9087 86.1942 61.1461 86.9557 58.4526C88.3823 53.4156 89.815 48.357 92.3294 43.7844C94.6447 39.5811 98.2614 36.8898 102.518 35.1575C103.974 34.5657 105.509 34.4296 107.034 35.0258C107.74 35.3023 108.171 35.717 108.163 36.6004C108.163 37.7473 108.268 38.8964 108.303 40.0563C108.317 40.5617 108.145 40.97 107.568 40.6805C104.977 39.3846 102.685 40.4797 100.458 41.7152C95.6833 44.3633 92.4382 48.3894 90.6299 53.7785C89.2177 57.9839 87.7768 62.1721 86.7033 66.4963C86.0875 68.9478 85.2357 71.3022 83.4848 73.1533C81.1962 75.5681 78.2261 74.8553 77.2142 71.6132C76.5245 69.4079 76.5101 67.0773 76.3049 64.7899C76.0032 61.6349 75.8539 58.4657 75.8574 55.2948C75.8615 54.8433 75.7712 54.3617 76.1509 53.8498Z" fill="#FBD46E"/>
<path d="M55.543 57.472C55.1981 57.3272 55.1324 57.04 55.1612 56.6857C55.6866 50.9835 55.6415 45.2726 55.5717 39.5508C55.4937 32.0666 55.192 24.5889 55.0503 17.1068C54.9846 13.6509 54.7917 10.2057 54.6562 6.7563C54.6316 6.10832 54.5782 5.40633 54.2149 4.89442C53.5992 4.01532 53.8373 3.3371 54.3853 2.58112C54.9025 1.86833 55.3254 1.06915 55.8118 0.339085C56.1115 -0.120984 56.3968 -0.138264 56.5836 0.449243C57.666 3.82597 58.745 7.20413 59.8205 10.5837C59.8903 10.7997 60.0668 11.0935 59.7549 11.2317C59.5393 11.3332 59.3772 11.1043 59.252 10.9444C58.8415 10.4239 58.4453 9.88823 58.043 9.35904L57.6776 9.63336C57.7166 10.3634 57.7823 11.0935 57.7926 11.8235C57.8891 18.4805 57.9137 25.1396 58.0861 31.7923C58.1949 36.0388 58.2195 40.2831 58.2544 44.536C58.2914 48.884 57.534 53.0505 55.7113 56.9773C55.6457 57.1429 55.5895 57.3124 55.543 57.4849V57.472Z" fill="#FBD46E"/>
<path d="M226.335 62.2951C226.669 59.9537 226.704 57.7376 226.788 55.5215C226.956 51.0288 226.915 46.534 226.805 42.0413C226.782 41.106 226.733 40.1729 226.727 39.2333C226.661 31.2156 226.244 23.2086 226.045 15.1952C226.014 13.9381 225.922 12.6832 225.869 11.4261C225.846 10.8775 225.817 10.2835 225.505 9.87527C224.713 8.83633 225.171 8.04147 225.789 7.19909C226.228 6.60294 226.61 5.95928 227.02 5.33937C227.328 4.8685 227.636 4.70866 227.855 5.39553C228.941 8.76793 230.022 12.1411 231.099 15.5149C231.152 15.6834 231.224 15.8907 231.064 16.0182C230.846 16.191 230.696 15.9771 230.54 15.8497C230.514 15.8259 230.491 15.7979 230.464 15.7784C230.025 15.4566 229.584 14.6574 229.2 14.8583C228.693 15.1196 228.995 15.962 228.995 16.5452C229.069 22.5931 229.103 28.628 229.278 34.665C229.442 40.3824 229.522 46.0998 229.397 51.8129C229.301 55.1353 228.531 58.3978 227.139 61.3815C227.017 61.6371 226.88 61.8846 226.729 62.1223C226.708 62.172 226.62 62.1785 226.335 62.2951Z" fill="#FBD46E"/>
<path d="M106.702 18.9665C107.27 18.2041 107.773 17.541 108.266 16.8671C108.526 16.5107 108.676 16.1953 108.331 15.7266C107.305 14.3507 107.33 13.0245 108.331 11.6227C108.599 11.2499 108.904 10.9081 109.241 10.6032C109.596 10.2814 109.967 9.86018 110.507 10.1151C111.086 10.3894 111.203 10.979 111.197 11.5687C111.174 13.3507 110.318 14.7805 109.415 16.1932C109.232 16.4783 108.9 16.6748 108.888 17.2472C110.324 16.6683 111.351 15.6769 112.315 14.5732C112.588 14.2557 112.765 13.8496 113.022 13.5127C113.547 12.8236 113.67 12.2404 112.859 11.6378C112.27 11.2058 112.272 10.5298 112.627 9.8969C113.17 8.93442 113.897 8.10108 114.762 7.44967C115.132 7.16888 115.583 6.97664 115.994 7.30928C116.404 7.64191 116.291 8.08254 116.164 8.49941C116.041 8.9107 115.894 9.31388 115.725 9.70682C115.378 10.4995 114.978 11.2793 116.271 11.5363C116.331 11.54 116.39 11.5598 116.441 11.594C116.492 11.6282 116.534 11.6756 116.563 11.7317C116.592 11.7877 116.606 11.8506 116.605 11.9143C116.605 11.978 116.588 12.0405 116.558 12.0957C116.339 12.4953 116.035 13.1152 115.598 12.9122C114.134 12.2318 113.703 13.45 113.026 14.2773C111.455 16.1996 109.852 18.068 107.496 18.9471C107.369 18.9986 107.239 19.0405 107.106 19.0724C106.968 19.0537 106.832 19.0182 106.702 18.9665Z" fill="#FBD46E"/>
<path d="M124.432 24.5284L128.58 22.2713C130.306 21.3317 132.137 20.5757 133.562 19.1112C134.688 17.9535 134.547 17.9254 133.551 17.0809C132.474 16.1694 132.408 15.286 133.141 14.0418C133.574 13.3096 134.052 12.6055 134.783 12.1476C135.723 11.5601 136.345 11.8171 136.618 12.9208C136.835 13.9056 136.835 14.9298 136.618 15.9145C136.523 16.4091 136.509 16.7785 137.057 17.0571C137.985 17.5086 137.281 18.1587 137.131 18.6987C136.961 19.3596 136.497 19.2236 136.086 18.9428C135.637 18.6296 135.384 18.8304 135.06 19.1976C132.303 22.2929 128.722 23.7163 124.922 24.6818C124.867 24.6947 124.797 24.645 124.432 24.5284Z" fill="#FBD46E"/>
<path d="M150.075 24.6731C151.468 23.9215 152.854 23.2 154.217 22.4354C156.048 21.4116 158.004 20.6059 159.439 18.9061C159.911 18.3488 159.849 18.0421 159.342 17.6101C158.636 17.0247 157.905 16.3984 158.217 15.2881C158.616 13.895 159.373 12.7545 160.697 12.1886C161.428 11.8754 161.852 12.3268 162.064 13.0526C162.364 14.0807 162.302 15.1132 162.097 16.1456C162.006 16.5949 161.955 16.9664 162.474 17.204C163.388 17.6209 162.811 18.284 162.647 18.8391C162.442 19.5368 162.013 19.4871 161.532 19.1588C160.988 18.7959 160.711 19.2603 160.424 19.5908C157.725 22.5197 154.25 23.8653 150.631 24.9129C150.477 24.9496 150.298 25.0058 150.075 24.6731Z" fill="#FBD46E"/>
<path d="M77.7314 23.7767C77.8587 23.3966 78.2425 23.3685 78.5237 23.213C80.5531 22.1057 82.5865 21.0055 84.624 19.9126C85.5805 19.3985 86.3461 18.6339 87.1015 17.8498C87.4648 17.4718 87.4689 17.2019 87.0543 16.7979C85.2254 15.0376 85.6565 12.4651 87.9431 11.3073C88.7169 10.9142 89.3101 11.195 89.6118 12.1044C89.9382 13.0915 89.8047 14.0937 89.6611 15.0894C89.5851 15.6056 89.5297 16.0247 90.127 16.3271C90.9645 16.7591 90.3117 17.3703 90.1763 17.893C90.0121 18.5086 89.6159 18.541 89.15 18.2257C88.684 17.9103 88.3618 18.1609 88.0252 18.5367C85.3178 21.5736 81.7709 22.9149 78.0783 23.9539C78.01 23.9787 77.9351 23.974 77.8701 23.9408C77.8051 23.9076 77.7552 23.8486 77.7314 23.7767Z" fill="#FBD46E"/>
<path d="M133.915 59.984C133.161 59.686 132.903 60.3944 132.439 60.632C132.028 58.755 132.8 57.6664 134.537 57.6642C135.015 57.6418 135.495 57.6476 135.973 57.6815C136.431 57.7377 137.147 57.3424 137.275 58.0876C137.394 58.7982 137.365 59.5996 136.62 60.0985C135.546 60.8032 134.561 61.6495 133.691 62.617C133.41 62.9388 132.901 63.2067 133.196 63.7791C133.326 64.0369 133.528 64.2473 133.773 64.383C134.019 64.5186 134.298 64.5731 134.573 64.5394C136.259 64.4076 137.39 63.3968 138.2 61.9064C138.377 61.5824 138.406 61.1504 138.769 60.9128C139.366 63.5264 136.525 67.0276 134.093 66.7447C132.966 66.6151 132.303 65.8181 132.26 64.5437C132.215 63.1937 132.552 62.2606 133.915 59.984Z" fill="#FBD46E"/>
<path d="M124.489 26.17C125.384 27.8072 125.515 29.3602 125.53 30.9219C125.508 31.4969 125.42 32.0671 125.267 32.6196C125.002 33.7665 124.187 34.0106 123.393 33.179C123.1 32.8243 122.831 32.449 122.586 32.0559C122.326 32.5634 122.207 33.1488 121.714 33.4425C121.493 33.5799 121.247 33.6661 120.992 33.6956C120.736 33.725 120.478 33.6969 120.234 33.6132C118.502 33.0689 118.592 31.5569 118.567 30.1076C118.184 29.9477 118.091 30.7556 117.732 30.4013C117.49 30.1616 117.693 29.7814 117.732 29.4704C117.835 28.695 118.097 27.9995 118.791 27.5999C119.23 27.3472 119.538 27.4638 119.501 28.0513C119.479 28.4444 119.391 28.8332 119.331 29.222C119.163 30.3149 119.653 31.1271 120.663 31.4273C121.63 31.7167 122.281 31.099 122.061 30.0644C121.827 28.9844 121.611 27.9044 122.203 26.7575C122.638 27.1204 122.595 27.6215 122.685 28.0362C122.905 29.0578 123.141 30.073 123.795 30.8981C124.001 31.1595 124.255 31.5655 124.616 31.369C124.978 31.1724 124.705 30.775 124.649 30.4877C124.542 29.9613 124.401 29.4431 124.226 28.9369C123.947 28.0794 124.046 27.2608 124.489 26.17Z" fill="#FBD46E"/>
<path d="M177.247 18.8888C177.815 19.7743 177.715 20.7226 178.037 21.5325C178.229 22.107 178.506 22.6458 178.858 23.1287C179.037 23.3447 179.269 23.5737 179.562 23.4549C179.94 23.3037 179.747 22.9624 179.687 22.7119C179.552 22.1179 179.379 21.5347 179.223 20.9472C179.153 20.745 179.105 20.5348 179.082 20.3208C179.061 19.716 179.041 18.7419 179.478 18.6987C180.079 18.6382 180.081 19.5454 180.205 20.1242C180.502 21.5369 180.73 22.9451 180.342 24.3815C180.196 24.9258 180.213 25.6019 179.548 25.7596C178.883 25.9172 178.466 25.4593 178.097 24.9561C177.953 24.7573 177.805 24.5629 177.585 24.2692C177.072 25.4658 176.325 26.1894 175.042 25.6775C173.411 25.0295 173.556 23.5694 173.675 22.1352C173.121 22.0488 173.127 22.7615 172.557 22.822C172.694 21.742 172.686 20.6772 173.538 19.8975C173.743 19.716 173.977 19.4935 174.271 19.6231C174.611 19.7743 174.476 20.1091 174.449 20.3791C174.406 20.7722 174.318 21.1567 174.275 21.5477C174.213 21.9975 174.32 22.4547 174.572 22.8236C174.824 23.1924 175.203 23.4442 175.627 23.5262C176.775 23.7594 177.218 23.3102 177.027 22.092C176.869 21.0703 176.615 20.0486 177.247 18.8888Z" fill="#FBD46E"/>
<path d="M37.6219 13.6876C37.0062 15.083 36.4171 15.5063 35.4503 15.3011C34.1202 15.0203 33.7795 14.3162 33.6625 11.5817C33.2232 11.4996 33.1925 12.1605 32.7963 12.1497C32.6136 10.7911 33.0016 9.65932 33.7877 9.21437C34.2742 8.93789 34.5903 8.97029 34.5164 9.67012C34.4712 10.1021 34.4055 10.5233 34.3378 10.9488C34.1921 11.8538 34.5431 12.4953 35.3066 12.8712C35.7684 13.1001 36.2652 13.3032 36.764 12.923C37.2627 12.5429 37.1745 12.0093 37.0575 11.465C36.8378 10.4542 36.647 9.44116 37.2422 8.38495C37.6732 8.7543 37.6404 9.24893 37.7246 9.66796C37.9298 10.6939 38.1638 11.7091 38.8309 12.5277C39.0362 12.7912 39.3256 13.1757 39.6766 12.9727C40.0276 12.7696 39.7484 12.3873 39.6971 12.0936C39.5083 11.0136 38.8761 10.0136 39.1429 8.85366C39.2045 8.5815 39.1675 8.16895 39.4426 8.10631C39.8305 8.01775 39.9147 8.47998 39.9988 8.7543C40.5879 10.6291 40.7973 12.5364 40.2451 14.4609C39.9947 15.3378 39.3954 15.5236 38.6544 15.0268C38.2028 14.7114 38.0017 14.1974 37.6219 13.6876Z" fill="#FBD46E"/>
<path d="M47.232 0.950368C46.8164 1.8263 46.1261 2.5244 45.2779 2.92672C40.0459 5.39987 34.8405 7.93349 29.627 10.4498C28.9455 10.7803 28.2743 11.1324 27.5949 11.465C27.4143 11.5536 27.2008 11.6961 27.0264 11.5039C26.8519 11.3117 27.0264 11.1065 27.1372 10.938C27.4943 10.4088 27.8823 9.91417 28.4693 9.64201C34.4902 6.75488 40.5159 3.86342 46.5464 0.967648C46.725 0.87477 46.9036 0.723573 47.232 0.950368Z" fill="#FBD46E"/>
<path d="M164.433 22.2475C164.882 21.3965 165.389 20.6902 166.237 20.282C172.136 17.4409 178.028 14.597 183.912 11.7502C184.148 11.6357 184.447 11.3743 184.651 11.6659C184.854 11.9575 184.49 12.1541 184.343 12.3744C184.015 12.8807 183.563 13.2838 183.035 13.5408C177.044 16.4207 171.056 19.3071 165.069 22.2C164.976 22.2653 164.868 22.3041 164.757 22.3124C164.645 22.3207 164.533 22.2984 164.433 22.2475Z" fill="#FBD46E"/>
<path d="M91.262 29.8743C91.7607 29.0103 92.3683 28.317 93.2673 27.8893C97.9048 25.6804 102.538 23.4621 107.167 21.2345C108.348 20.6664 109.516 20.0703 110.694 19.5065C110.928 19.3942 111.221 19.0875 111.431 19.3532C111.687 19.6772 111.31 19.9212 111.135 20.161C110.815 20.6294 110.388 21.0059 109.893 21.2561C103.956 24.1058 98.0232 26.962 92.0953 29.8246C91.8613 29.9369 91.6191 30.1486 91.262 29.8743Z" fill="#FBD46E"/>
<path d="M111.876 27.2392C112.414 26.2153 112.944 25.5241 113.795 25.1181C119.51 22.3821 125.221 19.6426 130.93 16.8995C131.306 16.7202 131.675 16.3616 132.219 16.6122C132.086 17.0004 131.879 17.3565 131.613 17.6596C131.346 17.9626 131.025 18.2065 130.668 18.3769C124.618 21.2928 118.564 24.1979 112.506 27.0923C112.3 27.1583 112.09 27.2074 111.876 27.2392Z" fill="#FBD46E"/>
<path d="M11.7305 18.4395C12.2518 17.9579 12.7362 17.9859 13.1673 17.8909C15.2199 17.4589 17.2314 16.8887 18.7749 15.2471C19.4338 14.5473 20.1194 13.9339 19.0664 12.8712C18.3624 12.167 19.1875 9.5902 20.1235 9.18845C20.5935 8.98541 21.0102 9.18845 21.3201 9.55564C21.9902 10.3228 22.5762 11.1669 23.0669 12.072C23.5882 13.085 23.2393 13.8799 22.1289 13.9922C21.355 14.0678 20.963 14.4523 20.5155 15.0722C18.9535 17.204 16.6628 17.9427 14.2695 18.3747C13.5265 18.5108 12.7527 18.7916 11.7305 18.4395Z" fill="#FBD46E"/>
<path d="M231.38 40.3911C230.94 40.3177 230.93 40.0714 231.137 39.7842C231.586 39.1444 232.181 38.6347 232.868 38.3024C237.601 36.0474 242.333 33.7874 247.063 31.5223C247.299 31.41 247.585 31.1206 247.806 31.369C248.102 31.7016 247.708 31.9457 247.548 32.1833C247.283 32.6067 246.915 32.9475 246.483 33.1704C241.601 35.5161 236.72 37.8625 231.839 40.2097C231.685 40.2766 231.532 40.3263 231.38 40.3911Z" fill="#FBD46E"/>
<path d="M247.884 47.4995C248.26 46.3936 248.41 45.5015 248.874 44.7391C249.223 44.1624 249.67 43.834 250.325 44.076C250.98 44.3179 251.171 44.9205 251.105 45.5512C251.043 46.1301 250.986 46.9077 250.052 46.3137C249.502 45.9616 249.436 46.5059 249.331 46.8623C248.98 48.0611 248.654 49.2685 248.305 50.4694C248.219 50.7675 248.182 51.193 247.811 51.193C247.439 51.193 247.451 50.7416 247.357 50.4565C247.166 49.8819 247.008 49.2944 246.815 48.7285C246.61 48.0805 246.569 47.3029 245.501 47.6356C245.009 47.7889 244.703 47.1431 244.619 46.6355C244.541 46.2821 244.571 45.9118 244.704 45.5772C244.838 45.2427 245.068 44.9608 245.362 44.7715C245.807 44.4669 246.224 44.6613 246.556 45.0242C247.131 45.6398 247.462 46.439 247.884 47.4995Z" fill="#FBD46E"/>
<path d="M73.8931 12.7286C74.2338 11.735 74.3529 10.83 74.7901 10.0459C75.1513 9.39792 75.6357 8.94217 76.3808 9.28128C77.0931 9.60528 77.2019 10.2943 77.0561 11.0092C76.9535 11.4758 76.8078 11.9704 76.1612 11.5298C75.5844 11.1367 75.4407 11.6745 75.3237 12.0698C74.9543 13.3031 74.6238 14.5494 74.2708 15.7892C74.1948 16.0527 74.1558 16.4178 73.8069 16.4026C73.4579 16.3875 73.4641 16.0074 73.382 15.7547C73.1952 15.1758 73.0372 14.5883 72.8463 14.0116C72.6164 13.3226 72.5302 12.5428 71.4587 12.7372C70.9702 12.8258 70.6233 12.2469 70.5761 11.7156C70.5341 11.3736 70.5863 11.0262 70.7264 10.7146C70.8665 10.4029 71.0886 10.1401 71.3664 9.95735C71.8241 9.64416 72.1997 9.89039 72.5589 10.2209C73.2301 10.8429 73.4477 11.7328 73.8931 12.7286Z" fill="#FBD46E"/>
<path d="M214.084 28.9175C214.388 27.8807 214.563 26.9929 215.004 26.2175C215.384 25.5501 215.909 25.0403 216.679 25.4961C217.449 25.9518 217.44 26.7078 217.17 27.4854C217.05 27.8224 216.841 28.0708 216.476 27.79C215.741 27.2262 215.614 27.8245 215.464 28.3645C215.158 29.4661 214.875 30.5741 214.559 31.6736C214.464 31.9975 214.429 32.4814 214.017 32.4879C213.573 32.4879 213.619 31.9867 213.512 31.6692C213.333 31.1271 213.175 30.5763 212.995 30.0363C212.789 29.4078 212.689 28.7252 211.708 28.9758C211.203 29.1054 210.913 28.479 210.811 27.9757C210.657 27.237 210.958 26.6322 211.502 26.1851C211.925 25.8374 212.323 26.0166 212.697 26.3558C213.387 26.9994 213.674 27.8785 214.084 28.9175Z" fill="#FBD46E"/>
<path d="M145.547 22.524C145.853 21.4095 146 20.4785 146.472 19.675C146.844 19.027 147.32 18.595 148.073 18.9946C148.827 19.3942 148.856 20.0962 148.656 20.8436C148.566 21.174 148.373 21.5045 148 21.2907C147.199 20.8328 147.055 21.4354 146.891 21.9991C146.553 23.1655 146.234 24.3384 145.902 25.5069C145.834 25.7423 145.779 26.0706 145.522 26.0966C145.163 26.1333 145.149 25.738 145.06 25.4875C144.886 24.982 144.765 24.4572 144.586 23.9539C144.319 23.2044 144.332 22.2108 143.073 22.4268C142.587 22.511 142.293 21.8825 142.236 21.3598C142.192 21.0183 142.244 20.6706 142.386 20.36C142.528 20.0494 142.753 19.7894 143.034 19.6124C143.484 19.3057 143.892 19.5951 144.225 19.9234C144.869 20.5563 145.151 21.4138 145.547 22.524Z" fill="#FBD46E"/>
<path d="M170.059 48.182C170.334 47.0696 170.523 46.2381 170.915 45.4907C171.235 44.8816 171.656 44.3783 172.378 44.6267C173.177 44.9054 173.298 45.6333 173.168 46.3979C173.08 46.9206 172.963 47.439 172.238 46.9487C171.639 46.5361 171.553 47.1539 171.44 47.5297C171.087 48.6939 170.781 49.8733 170.436 51.0418C170.348 51.3377 170.299 51.787 169.96 51.8042C169.576 51.8237 169.595 51.3485 169.496 51.0634C169.291 50.4888 169.143 49.8992 168.952 49.3203C168.747 48.6723 168.56 48.0459 167.637 48.1755C167.105 48.2511 166.816 47.7133 166.756 47.1668C166.702 46.8259 166.74 46.4758 166.866 46.1565C166.992 45.8372 167.201 45.5616 167.468 45.3611C167.932 45.0242 168.38 45.3395 168.739 45.7175C169.318 46.3331 169.628 47.128 170.059 48.182Z" fill="#FBD46E"/>
<path d="M150.356 53.2795C150.701 52.1823 150.857 51.2924 151.306 50.5169C151.573 50.0569 151.922 49.7199 152.458 49.789C152.681 49.808 152.894 49.8967 153.07 50.0436C153.245 50.1906 153.375 50.3892 153.443 50.6141C153.529 50.8693 153.558 51.1415 153.53 51.4104C153.501 51.6794 153.416 51.9381 153.279 52.1671C153.257 52.2169 153.224 52.2604 153.183 52.2943C153.142 52.3281 153.094 52.3514 153.042 52.3621C152.991 52.3728 152.939 52.3707 152.888 52.356C152.838 52.3413 152.792 52.3143 152.753 52.2773C151.963 51.6293 151.852 52.3183 151.69 52.8691C151.339 54.0679 151.009 55.2732 150.664 56.4741C150.596 56.7095 150.532 57.0227 150.253 57.0249C149.974 57.027 149.933 56.6987 149.859 56.4676C149.592 55.6533 149.348 54.8325 149.065 54.0269C148.919 53.6122 148.734 53.2817 148.166 53.4113C147.55 53.5538 147.215 53.0786 147.09 52.5171C146.993 52.1484 147.015 51.7563 147.152 51.4021C147.29 51.048 147.535 50.7519 147.85 50.5601C148.373 50.2016 148.734 50.6357 149.081 50.9921C149.66 51.5624 149.876 52.381 150.356 53.2795Z" fill="#FBD46E"/>
<path d="M103.723 52.8303C104.072 51.8518 104.294 51.0613 104.635 50.329C104.957 49.6379 105.472 49.1605 106.291 49.5515C106.888 49.8366 107.135 50.7934 106.831 51.5408C106.689 51.8929 106.47 52.1218 106.131 51.8475C105.474 51.314 105.294 51.8302 105.144 52.3292C104.772 53.5603 104.436 54.8045 104.078 56.0421C104.011 56.2797 103.955 56.5929 103.678 56.6102C103.401 56.6275 103.346 56.3056 103.268 56.0724C103.089 55.5302 102.898 54.9924 102.74 54.4416C102.525 53.6835 102.428 52.8994 101.322 53.0506C100.796 53.1219 100.532 52.543 100.464 52.0095C100.365 51.2341 100.607 50.5731 101.262 50.1671C101.734 49.8733 102.104 50.2016 102.44 50.5278C103.04 51.1001 103.28 51.9037 103.723 52.8303Z" fill="#FBD46E"/>
<path d="M33.9806 64.265C34.3316 63.3384 34.58 62.5371 34.9453 61.7746C35.2635 61.1158 35.8054 60.6946 36.5443 61.0899C37.2832 61.4852 37.3325 62.1936 37.1026 62.9475C36.9815 63.3427 36.7516 63.5955 36.337 63.3557C35.6617 62.9799 35.4934 63.4723 35.3476 63.9799C35.0233 65.1161 34.7319 66.2587 34.3932 67.3883C34.2988 67.7037 34.3008 68.2199 33.8759 68.2091C33.5147 68.2091 33.5619 67.7166 33.4654 67.4272C33.2827 66.8851 33.1288 66.3343 32.9502 65.7921C32.7224 65.1009 32.6444 64.319 31.5688 64.5134C31.0844 64.602 30.7622 64.0102 30.7006 63.4788C30.6509 63.138 30.6983 62.7893 30.8367 62.4768C30.9752 62.1642 31.1985 61.9019 31.4785 61.7228C31.9342 61.4139 32.3221 61.6709 32.669 62.0057C33.2766 62.5911 33.5434 63.4119 33.9806 64.265Z" fill="#FBD46E"/>
<path d="M82.3867 27.6646C82.7747 26.6819 82.8116 25.7488 83.2981 24.9949C83.6799 24.4031 84.0965 23.861 84.8806 24.2217C85.6647 24.5824 85.7017 25.3016 85.5375 26.0468C85.4348 26.5436 85.2213 26.8741 84.6918 26.4788C84.1622 26.0836 83.9836 26.4788 83.8523 26.9346C83.4972 28.1722 83.1462 29.4099 82.7788 30.6432C82.6987 30.9046 82.6618 31.2912 82.3416 31.3063C82.0214 31.3214 81.9926 30.9283 81.9085 30.6713C81.7176 30.0946 81.5534 29.5092 81.3543 28.9433C81.1244 28.2737 81.0813 27.4573 79.9852 27.6949C79.4967 27.8029 79.1929 27.2175 79.1231 26.6732C79.0267 25.9324 79.2463 25.3081 79.862 24.9107C80.3588 24.591 80.8062 24.8502 81.1511 25.2217C81.734 25.8503 81.9803 26.6905 82.3867 27.6646Z" fill="#FBD46E"/>
<path d="M28.6992 35.8141C29.0379 34.8854 29.1693 33.9933 29.5921 33.2222C29.9821 32.5073 30.526 32.1228 31.2835 32.5591C32.008 32.9803 32.0429 33.6996 31.7904 34.4426C31.6652 34.8141 31.4353 35.1078 31.0248 34.7838C30.487 34.3519 30.29 34.732 30.1545 35.1856C29.7953 36.3865 29.4608 37.5939 29.1077 38.7949C29.0215 39.0951 29.0071 39.5401 28.6561 39.5638C28.1984 39.5941 28.2456 39.0865 28.1409 38.7733C27.948 38.1966 27.79 37.6069 27.5867 37.0453C27.3692 36.4341 27.285 35.7277 26.3018 35.9653C25.7928 36.0928 25.5013 35.4858 25.4007 34.9696C25.253 34.2115 25.5937 33.6391 26.152 33.2114C26.5625 32.9025 26.934 33.0948 27.2665 33.395C27.9583 34.0063 28.2477 34.9026 28.6992 35.8141Z" fill="#FBD46E"/>
<path d="M9.01915 38.8424C9.35578 37.892 9.59182 37.0648 9.93871 36.2894C10.2548 35.5809 10.7864 35.1359 11.5972 35.4837C12.213 35.7451 12.4593 36.6846 12.1555 37.4557C12.0036 37.8424 11.7963 38.1037 11.396 37.7711C10.7803 37.2592 10.6079 37.7711 10.4744 38.216C10.1214 39.4191 9.81761 40.6352 9.47483 41.8404C9.39067 42.132 9.37425 42.577 8.99247 42.5727C8.61069 42.5683 8.62095 42.1191 8.52859 41.8275C8.29049 41.1536 8.09549 40.4624 7.86355 39.7863C7.67882 39.2507 7.56182 38.7193 6.74078 38.9612C6.22559 39.1124 5.91975 38.5292 5.79044 38.0216C5.60365 37.2765 5.89307 36.676 6.45958 36.2354C6.88652 35.9049 7.31961 36.0194 7.6665 36.3887C8.28228 37.0324 8.64969 37.8467 9.01915 38.8424Z" fill="#FBD46E"/>
<path d="M99.8131 17.7397C100.224 16.7569 100.269 15.8303 100.763 15.07C101.201 14.3961 101.724 13.9684 102.469 14.422C103.214 14.8756 103.075 15.6467 102.902 16.3659C102.812 16.7418 102.539 16.9038 102.2 16.6273C101.597 16.1327 101.431 16.6035 101.289 17.0787C100.969 18.1414 100.688 19.2171 100.353 20.2733C100.22 20.6923 100.24 21.3813 99.7372 21.3878C99.2733 21.3878 99.3636 20.7118 99.2117 20.3359C99.0064 19.8413 98.8977 19.3078 98.7068 18.8088C98.4913 18.2537 98.4502 17.5129 97.4896 17.8433C97.0462 17.9924 96.7219 17.433 96.6049 16.9621C96.5106 16.631 96.514 16.2775 96.6148 15.9485C96.7156 15.6195 96.909 15.3304 97.1694 15.1196C97.5799 14.7697 97.9904 14.8734 98.3866 15.1952C99.1275 15.8022 99.3451 16.7374 99.8131 17.7397Z" fill="#FBD46E"/>
<path d="M248.135 38.9072C248.275 38.0692 248.4 37.3153 248.525 36.5594C249.075 33.2201 249.227 29.924 247.768 26.7467C247.316 25.7618 247.94 24.9107 248.383 24.1548C248.706 23.5932 248.917 24.1764 249.03 24.4788C249.438 25.6226 249.714 26.8142 249.851 28.0276C250.292 31.4835 249.814 34.8292 248.738 38.0972C248.656 38.3672 248.619 38.7301 248.135 38.9072Z" fill="#FBD46E"/>
<path d="M267.583 31.8658C268.166 29.3365 268.486 26.9692 268.382 24.5522C268.314 22.956 268.043 21.4138 267.368 19.9688C267.054 19.297 267.337 17.5604 267.856 17.1047C268.267 16.744 268.378 17.1565 268.503 17.4351C268.952 18.5262 269.234 19.6854 269.338 20.8695C269.763 24.3445 269.369 27.876 268.191 31.153C268.127 31.3199 268.05 31.4804 267.959 31.6325C267.93 31.6822 267.862 31.7016 267.583 31.8658Z" fill="#FBD46E"/>
<path d="M113.836 70.436C113.399 70.0883 113.389 69.734 113.452 69.4381C113.787 67.9067 113.539 66.4142 113.136 64.9648C112.773 63.6689 113.296 62.4917 113.436 61.2649C113.458 61.1198 113.521 60.9851 113.617 60.8786C113.713 60.7721 113.837 60.6989 113.974 60.6687C114.6 60.4873 115.127 60.7357 115.567 61.172C116.182 61.7897 116.182 62.5867 116.008 63.3859C115.956 63.639 115.814 63.8615 115.611 64.0077C115.408 64.154 115.159 64.2128 114.916 64.1722C113.656 64.0534 113.656 64.7165 113.797 65.7532C114.005 67.2566 114.282 68.788 113.836 70.436Z" fill="#FBD46E"/>
<path d="M232.677 35.9221C233.048 35.6176 233.545 35.6867 233.978 35.555C235.191 35.1878 236.415 34.8422 237.289 33.7708C237.599 33.3907 237.788 33.0883 237.441 32.5591C236.991 31.8722 237.268 30.6389 237.87 30.1313C237.896 30.1076 237.921 30.0816 237.948 30.0622C238.073 29.9626 238.228 29.9153 238.384 29.9292C238.541 29.9432 238.686 30.0175 238.793 30.1378C239.424 30.7858 240.068 31.4662 240.208 32.4317C240.275 32.8939 239.892 33.1466 239.5 33.2006C238.941 33.2784 238.605 33.6326 238.256 34.0408C236.856 35.6997 234.949 36.0561 232.987 36.2397C232.855 36.2526 232.728 36.1684 232.677 35.9221Z" fill="#FBD46E"/>
<path d="M175.006 14.9037C174.735 14.5537 175.006 14.2297 175.055 13.9058C175.48 11.1194 175.814 8.35036 174.566 5.66554C174.199 4.87716 174.665 4.15357 175.096 3.59414C175.414 3.17727 175.582 3.71726 175.681 3.98726C176.165 5.37442 176.414 6.84025 176.416 8.31796C176.435 10.3724 176.099 12.4134 175.426 14.3421C175.365 14.5089 175.288 14.6688 175.196 14.8194C175.17 14.8691 175.086 14.8756 175.006 14.9037Z" fill="#FBD46E"/>
<path d="M148.946 47.3029C149.186 46.7846 149.539 46.8947 149.814 46.8213C150.81 46.5556 151.801 46.2813 152.595 45.5361C153.059 45.1041 153.48 44.7477 152.981 43.9377C152.536 43.2142 152.94 42.2897 153.533 41.9549C154.625 41.3393 154.798 42.659 155.274 43.2293C155.639 43.6613 155.89 44.3697 155.108 44.6138C154.465 44.8147 154.102 45.2618 153.652 45.683C152.345 46.9379 150.787 47.4325 148.946 47.3029Z" fill="#FBD46E"/>
<path d="M24.9534 22.3685C25.0688 20.7896 25.6493 19.2878 26.6139 18.0723C26.772 17.8563 26.9649 17.5215 27.2707 17.744C27.517 17.9255 27.2851 18.2062 27.2071 18.4266C26.9136 19.2689 26.5667 20.094 26.3183 20.9494C26.0987 21.7032 26.2834 22.2086 27.1743 21.8911C27.5314 21.7637 27.7716 21.7334 27.8003 22.2324C27.8578 23.1677 27.0675 24.2001 26.267 24.2196C25.4665 24.239 24.9698 23.5867 24.9534 22.3685Z" fill="#FBD46E"/>
<path d="M233.188 21.5153C233.419 20.9883 233.676 20.4743 233.958 19.9752C234.056 19.8014 234.215 19.6743 234.4 19.6204C234.586 19.5665 234.784 19.5899 234.953 19.6858C235.11 19.7585 235.241 19.8809 235.328 20.0358C235.415 20.1907 235.454 20.3704 235.44 20.5498C235.417 20.9818 235.294 21.3447 234.781 21.3079C234.268 21.2712 234.202 21.7248 234.089 22.0834C233.896 22.6946 233.736 23.321 233.555 23.9366C233.496 24.1526 233.426 24.3967 233.198 24.4096C232.97 24.4226 232.89 24.1699 232.825 23.9647C232.718 23.6256 232.619 23.2843 232.5 22.9452C232.367 22.5348 232.26 22.1503 231.706 22.1266C231.152 22.1028 230.981 21.6341 230.971 21.1287C230.963 20.911 231.017 20.6957 231.127 20.511C231.237 20.3264 231.397 20.181 231.587 20.094C232.059 19.878 232.357 20.2496 232.613 20.5822C232.821 20.8816 233.013 21.1931 233.188 21.5153Z" fill="#FBD46E"/>
<path d="M99.6283 4.41064C99.187 5.60726 98.7786 6.58356 98.4707 7.59441C98.1258 8.71543 98.2777 8.89038 99.4005 8.71759C99.733 8.66791 99.8295 8.77591 99.8746 9.07614C99.9998 9.89476 99.2589 11.0028 98.5158 11.1022C97.7092 11.2102 97.1365 10.614 97.038 9.57077C96.882 7.93137 98.173 5.20119 99.6283 4.41064Z" fill="#FBD46E"/>
<path d="M177.674 66.5265C177.778 64.8613 178.401 63.2786 179.445 62.023C179.581 61.861 179.747 61.658 179.958 61.7833C180.17 61.9086 180.063 62.1634 179.991 62.36C179.685 63.198 179.332 64.021 179.074 64.8742C178.77 65.8893 178.969 66.1269 179.946 65.9261C180.379 65.8375 180.511 65.9412 180.513 66.3732C180.513 67.4035 179.774 68.3171 178.936 68.2977C178.152 68.2718 177.676 67.6065 177.674 66.5265Z" fill="#FBD46E"/>
<path d="M45.3006 30.7858C45.2533 31.4942 44.8305 32.004 44.6581 32.6001C44.5001 33.1488 44.2722 33.6801 44.1573 34.2352C44.0156 34.9264 44.2681 35.3022 44.9927 35.0776C45.2554 34.9955 45.5099 34.8119 45.6618 35.2309C45.8404 35.7299 45.2718 36.9805 44.6992 37.2375C44.0013 37.5486 43.4224 37.3628 43.0571 36.6436C42.3017 35.1769 43.6872 31.4467 45.3006 30.7858Z" fill="#FBD46E"/>
<path d="M187.29 19.8305C187.992 19.6145 188.062 19.986 187.887 20.5628C187.813 20.8006 187.723 21.0323 187.616 21.2561C187.337 21.8522 186.927 22.2454 186.245 22.1201C185.564 21.9948 185.219 21.5261 185.186 20.8565C185.053 18.8845 185.726 17.2084 186.99 15.7785C187.122 15.6273 187.3 15.4264 187.508 15.6035C187.715 15.7806 187.549 15.9923 187.475 16.1867C187.142 17.0507 186.773 17.8995 186.498 18.7786C186.223 19.6577 186.391 19.8845 187.29 19.8305Z" fill="#FBD46E"/>
<path d="M258.872 41.5575C258.759 42.6958 258.178 43.4907 257.93 44.4086C257.581 45.7046 257.636 45.8126 258.903 45.778C259.161 45.778 259.266 45.8601 259.313 46.1215C259.432 46.9401 258.599 48.1367 257.86 48.1929C257.064 48.2533 256.528 47.6183 256.479 46.5556C256.388 44.8082 257.486 42.4128 258.872 41.5575Z" fill="#FBD46E"/>
<path d="M214.495 11.0978C214.085 12.167 213.703 13.0418 213.399 13.9403C212.97 15.2082 213.095 15.381 214.314 15.3486C214.571 15.3486 214.676 15.4134 214.711 15.6877C214.817 16.4848 214.072 17.6317 213.36 17.7354C212.559 17.852 211.997 17.2429 211.923 16.1802C211.798 14.3183 213.015 11.7545 214.495 11.0978Z" fill="#FBD46E"/>
<path d="M147.285 11.7566C147.474 10.1669 147.946 8.65492 149.011 7.39999C149.163 7.22288 149.35 6.94424 149.6 7.12352C149.851 7.30279 149.668 7.60303 149.57 7.80822C149.163 8.63837 148.852 9.51642 148.642 10.4239C148.498 11.0849 148.654 11.5493 149.426 11.2879C150.263 11.0006 150.235 11.4909 150.058 12.0547C149.806 12.8582 149.477 13.7027 148.48 13.5667C147.568 13.4479 147.351 12.6508 147.285 11.7566Z" fill="#FBD46E"/>
<path d="M70.4611 19.5173C70.1162 20.4375 69.7386 21.3446 69.4348 22.2777C69.0858 23.3577 69.2849 23.6061 70.3667 23.5456C70.615 23.5305 70.7341 23.5759 70.7936 23.8437C70.9722 24.6451 70.2928 25.7877 69.5292 25.9259C68.7184 26.0857 68.0349 25.4939 68.0349 24.4766C68.0349 22.4376 68.6856 20.6815 70.1614 19.351L70.4611 19.5173Z" fill="#FBD46E"/>
<path d="M168.805 33.9933C168.868 32.6023 169.511 31.207 170.492 29.9629C170.654 29.7577 170.87 29.451 171.163 29.6907C171.405 29.8873 171.198 30.1508 171.085 30.3625C170.625 31.2016 170.28 32.1047 170.059 33.0451C169.886 33.8227 170.159 34.2158 170.917 33.8745C171.565 33.583 171.656 33.8746 171.545 34.4189C171.405 35.1208 171.278 35.8595 170.48 36.1015C169.414 36.4255 168.78 35.7191 168.805 33.9933Z" fill="#FBD46E"/>
<path d="M16.5129 58.0379C16.6462 56.5728 17.23 55.1934 18.1755 54.109C18.3377 53.9124 18.5327 53.5625 18.8324 53.7893C19.0746 53.9751 18.8324 54.2429 18.7523 54.4654C18.4465 55.2969 18.077 56.1112 17.8512 56.9666C17.6809 57.6146 17.7281 58.2863 18.6907 57.9342C19.1772 57.755 19.2942 57.9472 19.2696 58.4332C19.2162 59.4397 18.5204 60.2929 17.7383 60.2627C16.9009 60.2324 16.4719 59.5391 16.5129 58.0379Z" fill="#FBD46E"/>
<path d="M243.231 18.6576C242.878 19.6534 242.484 20.6361 242.184 21.6492C241.848 22.7853 241.926 22.8609 243.084 22.8069C243.391 22.7918 243.519 22.9019 243.556 23.2108C243.646 23.9884 242.827 25.1418 242.129 25.2023C241.39 25.2671 240.778 24.6537 240.789 23.6493C240.811 21.6038 241.497 19.8478 242.962 18.5043L243.231 18.6576Z" fill="#FBD46E"/>
<path d="M208.922 46.9055C208.883 47.6723 208.358 48.2555 208.173 48.9618C208.056 49.411 207.841 49.8258 207.75 50.2858C207.611 50.9792 207.767 51.4868 208.594 51.2081C209.234 50.9921 209.316 51.301 209.224 51.8561C209.06 52.8302 208.337 53.5949 207.625 53.5387C206.913 53.4826 206.342 52.6078 206.449 51.5559C206.613 49.951 207.132 48.4844 208.187 47.2727C208.358 47.074 208.512 46.7845 208.922 46.9055Z" fill="#FBD46E"/>
<path d="M37.0635 48.1842C36.6837 49.18 36.2424 50.1563 35.9386 51.1779C35.6349 52.1996 35.8401 52.4523 36.8705 52.3572C37.2236 52.327 37.281 52.4825 37.3077 52.7676C37.3939 53.6187 36.6468 54.7008 35.914 54.7742C35.1155 54.852 34.5737 54.2321 34.5572 53.1391C34.5306 51.4112 35.134 49.9165 36.1808 48.6032C36.2765 48.4517 36.4102 48.3312 36.5671 48.2549C36.724 48.1786 36.898 48.1497 37.0696 48.1713L37.0635 48.1842Z" fill="#FBD46E"/>
<path d="M188.669 49.2707C188.373 49.2513 188.095 49.1158 187.89 48.8911C187.684 48.6664 187.566 48.3686 187.559 48.0568C187.397 46.0826 188.103 44.4108 189.32 42.9528C189.447 42.8016 189.634 42.605 189.839 42.7994C190.045 42.9938 189.884 43.2098 189.796 43.3913C189.392 44.1827 189.08 45.0225 188.866 45.8925C188.698 46.6485 188.79 47.2468 189.77 46.9293C190.036 46.8407 190.221 46.8126 190.293 47.1798C190.48 48.1021 189.517 49.3484 188.669 49.2707Z" fill="#FBD46E"/>
<path d="M159.008 65.1074C160.077 64.6625 159.931 65.3234 159.781 65.9239C159.576 66.7512 159.166 67.4488 158.248 67.3343C157.355 67.2242 157.127 66.4358 157.129 65.6496C157.129 63.846 157.803 62.2973 158.948 60.9711C159.059 60.8415 159.17 60.6428 159.359 60.7335C159.611 60.8545 159.517 61.0899 159.445 61.2908C159.114 62.1937 158.732 63.0814 158.464 64.0059C158.324 64.4918 158.228 65.1377 159.008 65.1074Z" fill="#FBD46E"/>
<path d="M147.158 30.5288C147.349 30.9608 147.008 31.2588 146.875 31.5936C146.569 32.3518 146.226 33.1056 146.109 33.9177C146.023 34.5225 146.109 35.0776 146.91 34.7666C147.71 34.4556 147.64 34.9826 147.509 35.4643C147.304 36.2678 147.055 37.1123 146.029 37.0734C145.208 37.041 144.748 36.3412 144.798 35.1835C144.872 33.5217 145.52 31.9456 146.62 30.7512C146.76 30.5979 146.889 30.4121 147.158 30.5288Z" fill="#FBD46E"/>
<path d="M222.989 43.4323C223.197 41.9288 223.812 40.5201 224.76 39.3738C224.885 39.2161 225.054 38.9893 225.269 39.1081C225.573 39.2766 225.374 39.5401 225.288 39.7561C224.922 40.646 224.467 41.497 224.29 42.4603C224.163 43.1429 224.212 43.6807 225.086 43.3848C225.702 43.1688 225.811 43.4604 225.729 44.0328C225.569 45.102 224.959 45.7607 224.171 45.7024C223.383 45.6441 222.968 44.9551 222.989 43.4323Z" fill="#FBD46E"/>
<path d="M4.38013 63.4399C4.44055 61.882 4.96953 60.3845 5.89083 59.1632C6.07146 58.9105 6.32392 58.5347 6.6195 58.701C7.01154 58.917 6.63386 59.2626 6.54355 59.5326C6.28287 60.3123 5.92778 61.064 5.73689 61.8589C5.50905 62.7898 5.75331 63.0382 6.62155 62.82C7.16138 62.684 7.23732 62.9064 7.14906 63.3622C7.09788 63.6077 7.02926 63.8489 6.94381 64.0836C6.67492 64.8482 6.19256 65.2997 5.37768 65.1096C4.46428 64.8957 4.43349 64.1009 4.38013 63.4399Z" fill="#FBD46E"/>
<path d="M88.5607 66.5417C88.766 65.2003 89.1539 63.7229 90.2213 62.5501C90.3937 62.3578 90.5805 62.0014 90.8822 62.239C91.1162 62.4248 90.8986 62.7077 90.8063 62.9259C90.4573 63.7467 90.0448 64.5372 89.8518 65.425C89.6835 66.2025 89.8518 66.7209 90.7077 66.4099C91.4282 66.1593 91.3769 66.5395 91.303 67.0384C91.1449 68.0731 90.482 68.7815 89.7307 68.7146C88.9795 68.6476 88.5074 67.9111 88.5607 66.5417Z" fill="#FBD46E"/>
<path d="M255.103 61.2173C255.514 60.4894 255.36 59.9754 254.88 59.403C254.506 58.958 254.637 58.3727 254.988 57.9126C255.399 57.3618 255.74 56.6469 256.542 56.6534C257.38 56.6534 257.556 57.2236 257.094 58.3554C257.632 58.6124 258.014 57.9083 258.691 58.1524C257.965 59.8004 256.243 60.1071 255.103 61.2173Z" fill="#FBD46E"/>
<path d="M66.7787 67.8225C66.8628 66.6237 67.4355 65.2629 68.3284 64.0469C68.5008 63.8114 68.7163 63.3773 69.0345 63.5695C69.4101 63.7963 69.0345 64.1268 68.9339 64.4011C68.6506 65.2068 68.3345 66.0016 68.08 66.8181C67.8481 67.5546 67.961 68.0881 68.8805 67.8095C69.6482 67.5741 69.6154 68.0255 69.4696 68.5461C69.2644 69.2912 68.9832 70.0062 68.1252 70.1142C67.2241 70.22 66.7458 69.5137 66.7787 67.8225Z" fill="#FBD46E"/>
<path d="M82.9654 52.556C82.5426 53.7504 82.1444 54.7656 81.8303 55.8132C81.5491 56.7744 81.7441 56.9774 82.676 56.8262C82.9285 56.7852 83.1337 56.6944 83.2487 57.0422C83.4211 57.5455 82.8484 58.8069 82.2963 59.0423C81.6353 59.3253 81.077 59.1417 80.7219 58.4872C79.9317 57.0227 81.2577 53.3206 82.9654 52.556Z" fill="#FBD46E"/>
<path d="M222.788 58.8997C223.124 58.7982 223.28 58.7377 223.442 58.7053C223.789 58.6362 224.216 58.1588 224.448 58.539C224.68 58.9191 224.206 59.3511 223.921 59.5736C222.995 60.2885 222.022 60.9324 221.008 61.5003C221.597 60.7961 221.472 60.3102 220.873 59.7443C220.45 59.3447 220.587 58.7377 220.951 58.2798C221.39 57.7225 221.671 56.9018 222.572 57.0184C223.473 57.135 223.547 57.7096 222.788 58.8997Z" fill="#FBD46E"/>
<path d="M226.041 59.7529C225.932 60.0742 225.762 60.3689 225.542 60.6188C225.321 60.8687 225.054 61.0687 224.758 61.2066C222.956 62.1613 221.15 63.1066 219.341 64.0426C219.095 64.17 218.768 64.507 218.547 64.0988C218.387 63.8072 218.723 63.576 218.918 63.4076C220.043 62.4356 221.418 61.9366 222.707 61.2908C223.758 60.7638 224.698 59.9322 226.041 59.7529Z" fill="#FBD46E"/>
<path d="M252.482 63.5242C254.607 61.5673 257.408 60.8631 259.894 59.2712C259.993 60.0164 259.668 60.3793 259.315 60.5672C257.148 61.7401 254.956 62.8654 252.772 64.008L252.482 63.5242Z" fill="#FBD46E"/>
<path d="M235.938 64.4011C236.06 63.3535 236.429 62.3546 237.012 61.496C237.164 61.28 237.357 60.9409 237.661 61.1374C237.923 61.3059 237.695 61.5932 237.617 61.8135C237.437 62.2367 237.278 62.6693 237.139 63.1095C237.014 63.643 236.729 64.3406 237.776 64.1592C238.186 64.0858 238.198 64.4443 238.129 64.7381C237.966 65.4357 237.685 66.1291 236.876 66.034C236.068 65.939 235.932 65.2305 235.938 64.4011Z" fill="#FBD46E"/>
</g>
<defs>
<clipPath id="clip0_15_67">
<rect width="278" height="75" fill="white"/>
</clipPath>
</defs>
</svg>
